<!--?xml version="1.0" standalone="no"?-->              <svg id="sw-js-blob-svg" viewBox="0 0 100 100" xmlns="http://www.w3.org/2000/svg">                    <defs>                         <linearGradient id="sw-gradient" x1="0" x2="1" y1="1" y2="0">                            <stop id="stop1" stop-color="rgba(255, 255, 255, 1)" offset="0%"></stop>                            <stop id="stop2" stop-color="rgba(255, 255, 255, 1)" offset="100%"></stop>                        </linearGradient>                    </defs>                <path fill="url(#sw-gradient)" d="M17.4,-31C23.5,-26.7,29.8,-23.8,35.1,-18.8C40.5,-13.9,44.9,-6.9,43.8,-0.6C42.7,5.7,36.1,11.3,31.4,17.5C26.7,23.6,23.9,30.1,19,34.2C14.1,38.3,7.1,39.8,0.3,39.3C-6.5,38.8,-12.9,36.2,-17.8,32.1C-22.6,28,-25.8,22.4,-30,16.8C-34.2,11.2,-39.4,5.6,-40.2,-0.5C-41.1,-6.6,-37.6,-13.1,-33.7,-19.3C-29.8,-25.4,-25.5,-31,-19.8,-35.5C-14.1,-40,-7.1,-43.3,-0.7,-42.1C5.7,-40.9,11.4,-35.3,17.4,-31Z" width="100%" height="100%" transform="translate(50 50)" stroke-width="0" style="transition: 0.3s;" stroke="url(#sw-gradient)"></path>              </svg>